<svg id="Layer_1" data-name="Layer 1" xmlns="http://www.w3.org/2000/svg" xmlns:xlink="http://www.w3.org/1999/xlink" viewBox="0 0 1498.2 1054.9"><defs><style>.cls-1{fill:url(#linear-gradient);}.cls-2{fill:url(#linear-gradient-2);}.cls-3{fill:url(#linear-gradient-3);}.cls-4{fill:#6883de;}</style><linearGradient id="linear-gradient" x1="281.78" y1="1031.18" x2="281.78" y2="1055.24" gradientUnits="userSpaceOnUse"><stop offset="0" stop-color="#ff636e"/><stop offset="1" stop-color="#f98d6c"/></linearGradient><linearGradient id="linear-gradient-2" x1="1163.42" y1="71.69" x2="1163.42" y2="95.75" xlink:href="#linear-gradient"/><linearGradient id="linear-gradient-3" x1="1745.3" y1="1058.11" x2="1745.3" y2="1082.17" xlink:href="#linear-gradient"/></defs><g id="bg_obj"><path class="cls-1" d="M264.44,1045.28a17.34,17.34,0,1,1,17.34,17.34A17.35,17.35,0,0,1,264.44,1045.28Zm7.75,0a9.59,9.59,0,1,0,9.59-9.59A9.6,9.6,0,0,0,272.19,1045.28Z" transform="translate(-264.44 -68.45)"/><path class="cls-2" d="M1146.08,85.79a17.35,17.35,0,1,1,17.35,17.34A17.36,17.36,0,0,1,1146.08,85.79Zm7.76,0a9.59,9.59,0,1,0,9.59-9.59A9.6,9.6,0,0,0,1153.84,85.79Z" transform="translate(-264.44 -68.45)"/><path class="cls-3" d="M1728,1072.21a17.34,17.34,0,1,1,17.34,17.34A17.36,17.36,0,0,1,1728,1072.21Zm7.75,0a9.59,9.59,0,1,0,9.59-9.59A9.6,9.6,0,0,0,1735.71,1072.21Z" transform="translate(-264.44 -68.45)"/><path class="cls-4" d="M1046.57,215.42V186.14a2.25,2.25,0,1,0-4.49,0v29.28a2.25,2.25,0,0,0,4.49,0Z" transform="translate(-264.44 -68.45)"/><path class="cls-4" d="M1059,198.53h-29.28a2.25,2.25,0,0,0,0,4.49H1059a2.25,2.25,0,1,0,0-4.49Z" transform="translate(-264.44 -68.45)"/><path class="cls-4" d="M544.52,155.29V132.38a1.76,1.76,0,0,0-3.52,0v22.91a1.76,1.76,0,1,0,3.52,0Z" transform="translate(-264.44 -68.45)"/><path class="cls-4" d="M554.22,142.08H531.3a1.76,1.76,0,0,0,0,3.51h22.92a1.76,1.76,0,0,0,0-3.51Z" transform="translate(-264.44 -68.45)"/><path class="cls-4" d="M652.69,1121.59v-22.92a1.76,1.76,0,0,0-3.52,0v22.92a1.76,1.76,0,0,0,3.52,0Z" transform="translate(-264.44 -68.45)"/><path class="cls-4" d="M662.39,1108.37H639.47a1.76,1.76,0,0,0,0,3.52h22.92a1.76,1.76,0,0,0,0-3.52Z" transform="translate(-264.44 -68.45)"/></g></svg>